	<svg xmlns="http://www.w3.org/2000/svg" width="266" height="266" viewBox="0 0 265.7 262.2"><path d="M221.2 184.2l-54.9-16.2 -0.6-0.3c0 0-6.9 0.6-3.5-13.6 0 0 7.5-19.3 7.5-26.6 0 0 5.5-2.6 9-19.3 0 0 3.5-11.8-1.2-18.8 0 0 4-26 2-36.4 0 0-6.3-34.2-47.1-34.6v0c0 0-0.1 0-0.1 0 0 0-0.1 0-0.1 0v0c-40.7 0.5-47.1 34.6-47.1 34.6 -2 10.4 2 36.4 2 36.4 -4.6 6.9-1.2 18.8-1.2 18.8 3.5 16.7 9 19.3 9 19.3 0 7.2 7.5 26.6 7.5 26.6 3.5 14.2-3.5 13.6-3.5 13.6l-0.6 0.3 -54 16.2C0 202.6 0 219.4 0 219.4v37c0 0 68 24.6 132.5 24.3 74.5-0.4 133.1-24.3 133.1-24.3v-37C265.7 219.4 265.7 202.6 221.2 184.2z" fill="#e6e6e6"/></svg>